{"title":"Neighbor 2009 720p BRRip x264 Feel-Free","uid":6095841,"size":1596374808,"categoryP":"video","categoryS":"hd___movies","magnet":"?xt=urn:btih:a4305e79f186a3d81fbd243a4f1bc806667a871b&amp;dn=Neighbor+2009+720p+BRRip+x264+Feel-Free&amp;tr=udp%3A%2F%2Ftracker.openbittorrent.com%3A80&amp;tr=udp%3A%2F%2Fopen.demonii.com%3A1337&amp;tr=udp%3A%2F%2Ftracker.coppersurfer.tk%3A6969&amp;tr=udp%3A%2F%2Fexodus.desync.com%3A6969","seeders":0,"leechers":1,"uploader":"neon","files":-1,"time":1294771300,"description":"Genre:Horror | Thriller\nLanguage:English\n &lt;a href=&quot; http://www.imdb.com/title/tt1362103/&quot; rel=&quot;nofollow&quot; target=&quot;_NEW&quot;&gt; http://www.imdb.com/title/tt1362103/&lt;/a&gt;\nSource:1080p BluRay x264-KaKa\n\n\nFormat : Matroska\nFile size : 1.48 GiB\nDuration : 1h 22mn\nOverall bit rate : 2 572 Kbps\n\n\nVideo\nFormat settings, CABAC : Yes\nFormat settings, ReFrames : 4 frames\nFormat settings, GOP : M=4, N=16\nCodec ID : V_MPEG4/ISO/AVC\nDuration : 1h 22mn\nBit rate : 2 200 Kbps\nWidth : 1 280 pixels\nHeight : 544 pixels\nDisplay aspect ratio : 2.35:1\nFrame rate mode : Variable\nFrame rate : 25.000 fps\nColor space : YUV\nChroma subsampling : 4:2:0\nBit depth : 8 bits\nScan type : Progressive\nBits/(Pixel*Frame) : 0.126\nStream size : 1.23 GiB (83%)\nWriting library : x264\n\n\nAudio\nID : 2\nFormat : AC-3\nFormat/Info : Audio Coding 3\nMode extension : CM (complete main)\nCodec ID : A_AC3\nDuration : 1h 22mn\nBit rate mode : Constant\nBit rate : 384 Kbps\nChannel(s) : 6 channels\nChannel positions : Front: L C R, Side: L R, LFE\nSampling rate : 48.0 KHz\nBit depth : 16 bits\nVideo delay : -1mn 5s\nStream size : 226 MiB (15%)\nLanguage : English\n\n\n\nPlot:\nA mysterious new girl arrives in posh suburban neighborhood and quickly sets out to terrorize the town. As she starts breaking into homes and torturing the occupants, they begin to realize that she isn't just another girl next door\n &lt;a href=&quot;\nhttp://shareimage.org/images/edpke3dgmk5othabh650.png&quot; rel=&quot;nofollow&quot; target=&quot;_NEW&quot;&gt;\nhttp://shareimage.org/images/edpke3dgmk5othabh650.png&lt;/a&gt; &lt;a href=&quot;\nhttp://shareimage.org/images/k4ri4xdilv7ufqepwje8.png&quot; rel=&quot;nofollow&quot; target=&quot;_NEW&quot;&gt;\nhttp://shareimage.org/images/k4ri4xdilv7ufqepwje8.png&lt;/a&gt; &lt;a href=&quot;\nhttp://shareimage.org/images/dbt9ib26t59mh7x5w8w3.png&quot; rel=&quot;nofollow&quot; target=&quot;_NEW&quot;&gt;\nhttp://shareimage.org/images/dbt9ib26t59mh7x5w8w3.png&lt;/a&gt; &lt;a href=&quot;\nhttp://shareimage.org/images/v6wgu6rcylvt0danb1h9.png&quot; rel=&quot;nofollow&quot; target=&quot;_NEW&quot;&gt;\nhttp://shareimage.org/images/v6wgu6rcylvt0danb1h9.png&lt;/a&gt; &lt;a href=&quot;\nhttp://shareimage.org/images/64xdyx5plpglx6anhn.png&quot; rel=&quot;nofollow&quot; target=&quot;_NEW&quot;&gt;\nhttp://shareimage.org/images/64xdyx5plpglx6anhn.png&lt;/a&gt;","torrent":{"xt":"urn:btih:a4305e79f186a3d81fbd243a4f1bc806667a871b","amp;dn":"Neighbor+2009+720p+BRRip+x264+Feel-Free","amp;tr":["udp%3A%2F%2Ftracker.openbittorrent.com%3A80","udp%3A%2F%2Fopen.demonii.com%3A1337","udp%3A%2F%2Ftracker.coppersurfer.tk%3A6969","udp%3A%2F%2Fexodus.desync.com%3A6969"],"infoHash":"a4305e79f186a3d81fbd243a4f1bc806667a871b","infoHashBuffer":{"type":"Buffer","data":[164,48,94,121,241,134,163,216,31,189,36,58,79,27,200,6,102,122,135,27]},"announce":[],"urlList":[]}}